<?xml version="1.0" standalone="no"?>
<!DOCTYPE svg PUBLIC "-//W3C//DTD SVG 20010904//EN"
 "http://www.w3.org/TR/2001/REC-SVG-20010904/DTD/svg10.dtd">
<svg version="1.0" xmlns="http://www.w3.org/2000/svg"
 width="500.000000pt" height="500.000000pt" viewBox="0 0 500.000000 500.000000"
 preserveAspectRatio="xMidYMid meet">

<g transform="translate(0.000000,500.000000) scale(0.100000,-0.100000)"
fill="#000000" stroke="none">
<path d="M1582 2568 l3 -713 756 -3 757 -2 38 57 c41 63 199 276 245 333 16
19 29 39 29 44 0 8 -44 70 -182 257 l-19 25 100 135 c55 74 101 139 101 145 0
6 -55 82 -121 170 -67 87 -136 183 -155 212 l-34 52 -760 0 -760 0 2 -712z
m1327 345 c28 -32 51 -62 51 -66 0 -4 -25 -39 -56 -78 l-56 -69 -424 0 -424 0
0 135 0 135 429 0 429 0 51 -57z m-4 -553 c31 -38 55 -74 53 -79 -1 -5 -27
-34 -56 -65 l-53 -56 -425 0 -424 0 0 135 0 135 425 0 424 0 56 -70z"/>
<path d="M2020 2890 l0 -70 407 0 c401 0 407 0 429 -21 l23 -21 25 28 c14 16
26 33 26 38 0 5 -21 33 -46 62 l-46 54 -409 0 -409 0 0 -70z"/>
<path d="M2020 2340 l0 -70 407 0 c404 0 407 0 430 -22 l23 -21 25 23 c14 13
25 28 25 33 0 5 -21 35 -46 68 l-47 59 -408 0 -409 0 0 -70z"/>
<path d="M3312 2668 l-73 -100 23 -34 c12 -18 26 -30 29 -26 31 35 149 196
149 202 0 11 -40 60 -48 59 -4 0 -40 -45 -80 -101z"/>
<path d="M3283 2073 c-61 -83 -123 -169 -137 -192 l-26 -41 -780 0 -780 0 0
-70 0 -70 777 2 776 3 51 72 c28 39 101 137 161 218 61 80 111 151 113 158 1
6 -8 25 -21 41 l-23 29 -111 -150z"/>
</g>
</svg>
